<?xml version="1.0" encoding="utf-8"?>
<svg viewBox="-1253.786 -463.458 3047.29 585.86" width="209" height="40" xmlns="http://www.w3.org/2000/svg">
  <defs/>
  <g transform="matrix(1, 0, 0, 1, -1524.156173, -341.911296)">
    <g id="Layer_1" transform="matrix(1, 0, 0, 1, 7.410228, -381.626659)">
      <g>
        <g>
          <path class="cls-4" d="M1100.01,512.75c6.51-13.37,22.62-21.93,37.01-21.93,9.6,0,17.48,7.88,17.48,17.48s-7.88,17.48-17.48,17.48c-23.65,0-37.01,15.08-37.01,38.04v71.29c0,10.28-8.23,18.51-18.51,18.51s-18.51-8.23-18.51-18.51v-124.07c0-10.28,8.23-18.51,18.51-18.51s18.51,8.23,18.51,18.51v1.71Z" style="fill: rgb(51, 149, 142);"/>
          <path class="cls-4" d="M1234.35,490.47c57.92,0,68.55,44.55,68.55,68.2,0,12.68,0,27.42-20.91,27.42h-84.65c0,24.68,17.48,35.99,40.1,35.99,15.08,0,25.7-5.14,33.93-10.63,3.77-2.4,6.51-3.77,10.97-3.77,8.91,0,16.11,7.2,16.11,16.11,0,5.48-2.74,9.94-5.83,12.68-5.83,5.48-23.99,18.85-55.18,18.85-47.64,0-77.11-25.7-77.11-82.94,0-52.44,27.42-81.91,74.03-81.91ZM1198.37,555.24h67.86c0-16.79-9.6-33.24-31.87-33.24-19.88,0-34.27,11.31-35.99,33.24Z" style="fill: rgb(51, 149, 142);"/>
          <path class="cls-4" d="M1561.66,550.1v85.68c0,10.28-8.23,17.82-18.51,17.82-10.97,0-18.51-7.54-18.51-17.82v-78.83c0-19.54-7.88-32.9-30.16-32.9-24.68,0-34.27,13.37-34.27,32.56v79.17c0,10.28-8.23,17.82-18.51,17.82-10.97,0-18.51-7.54-18.51-17.82v-78.83c0-19.54-7.88-32.9-30.16-32.9-25.7,0-34.27,15.08-34.27,35.3v76.43c0,10.28-7.88,17.82-18.51,17.82s-18.51-7.54-18.51-17.82v-124.75c0-10.28,8.23-18.51,18.51-18.51s18.51,8.23,18.51,18.51c6.51-9.94,20.91-20.56,43.87-20.56,28.1,0,42.16,8.91,50.72,22.28,10.97-14.74,25.7-22.28,49.01-22.28,46.61,0,59.29,29.82,59.29,59.63Z" style="fill: rgb(51, 149, 142);"/>
          <path class="cls-4" d="M1655.23,655.32c-46.27,0-75.06-26.39-75.06-82.25s28.79-82.6,75.06-82.6,75.06,26.39,75.06,82.6-28.79,82.25-75.06,82.25ZM1655.23,522c-24.68,0-37.7,17.14-37.7,51.07s13.02,50.72,37.7,50.72,37.7-17.14,37.7-50.72-13.02-51.07-37.7-51.07Z" style="fill: rgb(51, 149, 142);"/>
          <path class="cls-4" d="M1762.5,466.48c0-9.94,8.23-18.16,18.16-18.16s18.16,8.23,18.16,18.16v28.79h15.42c8.57,0,15.42,6.85,15.42,15.42s-6.85,15.42-15.42,15.42h-15.42v82.94c0,7.88,6.85,12.34,13.02,12.34,8.91,0,16.11,7.2,16.11,16.11s-7.2,16.11-16.11,16.11c-30.5,0-49.35-19.54-49.35-46.61v-80.88h-7.88c-8.57,0-15.42-6.85-15.42-15.42s6.85-15.42,15.42-15.42h7.88v-28.79Z" style="fill: rgb(51, 149, 142);"/>
          <path class="cls-4" d="M1915.7,490.47c57.92,0,68.55,44.55,68.55,68.2,0,12.68,0,27.42-20.91,27.42h-84.65c0,24.68,17.48,35.99,40.1,35.99,15.08,0,25.7-5.14,33.93-10.63,3.77-2.4,6.51-3.77,10.97-3.77,8.91,0,16.11,7.2,16.11,16.11,0,5.48-2.74,9.94-5.83,12.68-5.83,5.48-23.99,18.85-55.18,18.85-47.64,0-77.11-25.7-77.11-82.94,0-52.44,27.42-81.91,74.03-81.91ZM1879.72,555.24h67.86c0-16.79-9.6-33.24-31.87-33.24-19.88,0-34.27,11.31-35.99,33.24Z" style="fill: rgb(51, 149, 142);"/>
          <path class="cls-4" d="M2058.28,466.48c0-9.94,8.23-18.16,18.16-18.16s18.16,8.23,18.16,18.16v28.79h15.42c8.57,0,15.42,6.85,15.42,15.42s-6.85,15.42-15.42,15.42h-15.42v82.94c0,7.88,6.85,12.34,13.02,12.34,8.91,0,16.11,7.2,16.11,16.11s-7.2,16.11-16.11,16.11c-30.5,0-49.35-19.54-49.35-46.61v-80.88h-7.88c-8.57,0-15.42-6.85-15.42-15.42s6.85-15.42,15.42-15.42h7.88v-28.79Z" style="fill: rgb(51, 149, 142);"/>
          <path class="cls-4" d="M2211.48,490.47c57.92,0,68.55,44.55,68.55,68.2,0,12.68,0,27.42-20.91,27.42h-84.65c0,24.68,17.48,35.99,40.1,35.99,15.08,0,25.7-5.14,33.93-10.63,3.77-2.4,6.51-3.77,10.97-3.77,8.91,0,16.11,7.2,16.11,16.11,0,5.48-2.74,9.94-5.83,12.68-5.83,5.48-23.99,18.85-55.18,18.85-47.64,0-77.11-25.7-77.11-82.94,0-52.44,27.42-81.91,74.03-81.91ZM2175.49,555.24h67.86c0-16.79-9.6-33.24-31.87-33.24-19.88,0-34.27,11.31-35.99,33.24Z" style="fill: rgb(51, 149, 142);"/>
          <path class="cls-4" d="M2366.05,490.47c31.53,0,49.7,15.77,55.86,23.65,2.74,3.77,3.77,6.51,3.77,10.62,0,9.25-7.2,16.45-16.45,16.45-5.48,0-9.6-2.4-12.68-5.83-4.46-4.8-13.37-13.37-30.5-13.37-23.99,0-37.01,18.51-37.01,50.72s13.02,51.07,37.01,51.07c15.77,0,26.05-7.88,33.93-13.71,3.77-2.74,6.85-3.43,10.28-3.43,9.25,0,16.45,7.2,16.45,16.45,0,4.8-1.71,8.91-5.83,12.68-7.88,7.2-26.73,19.54-54.84,19.54-46.61,0-74.37-26.73-74.37-82.6s27.76-82.25,74.37-82.25Z" style="fill: rgb(51, 149, 142);"/>
          <path class="cls-4" d="M2483.61,511.03c6.51-9.94,20.91-20.56,43.87-20.56,46.61,0,57.58,29.82,57.58,59.63v85.68c0,10.28-8.23,17.82-18.51,17.82-10.97,0-18.51-7.54-18.51-17.82v-78.83c0-19.54-7.88-32.9-30.16-32.9-25.7,0-34.27,15.08-34.27,35.3v76.43c0,10.28-7.88,17.82-18.51,17.82s-18.51-7.54-18.51-17.82v-210.43c0-10.28,8.23-18.51,18.51-18.51s18.51,8.23,18.51,18.51v85.68Z" style="fill: rgb(51, 149, 142);"/>
          <path class="cls-3" d="M2625.5,631.33c0-15.42,8.23-22.96,22.62-22.96s22.28,7.54,22.28,22.96-7.88,22.28-22.28,22.28-22.62-7.2-22.62-22.28Z" style="fill: rgb(248, 202, 83);"/>
          <path class="cls-3" d="M2791.03,565.53l-21.25,74.71c-2.4,7.88-9.6,13.37-17.82,13.37s-14.74-5.14-17.48-12l-46.95-122.35c-1.03-2.4-1.71-6.17-1.71-8.23,0-10.28,8.23-18.51,18.51-18.51,7.88,0,14.74,4.46,17.48,12l28.45,84.31,22.96-82.94c1.71-6.17,7.54-13.37,17.82-13.37,9.25,0,15.77,6.51,17.48,12.34l22.96,83.97,28.1-84.31c2.74-7.54,9.6-12,17.82-12,10.62,0,18.51,7.54,18.51,17.82,0,2.06-.69,4.8-1.71,7.2l-46.95,124.41c-2.74,7.54-9.25,11.65-17.14,11.65s-15.42-5.48-17.82-13.02l-21.25-75.06Z" style="fill: rgb(248, 202, 83);"/>
          <path class="cls-3" d="M2977.82,655.32c-46.27,0-75.06-26.39-75.06-82.25s28.79-82.6,75.06-82.6,75.06,26.39,75.06,82.6-28.79,82.25-75.06,82.25ZM2977.82,522c-24.68,0-37.7,17.14-37.7,51.07s13.02,50.72,37.7,50.72,37.7-17.14,37.7-50.72-13.02-51.07-37.7-51.07Z" style="fill: rgb(248, 202, 83);"/>
          <path class="cls-3" d="M3110.11,512.75c6.51-13.37,22.62-21.93,37.01-21.93,9.6,0,17.48,7.88,17.48,17.48s-7.88,17.48-17.48,17.48c-23.65,0-37.01,15.08-37.01,38.04v71.29c0,10.28-8.23,18.51-18.51,18.51s-18.51-8.23-18.51-18.51v-124.07c0-10.28,8.23-18.51,18.51-18.51s18.51,8.23,18.51,18.51v1.71Z" style="fill: rgb(248, 202, 83);"/>
          <path class="cls-3" d="M3278.04,646.41l-51.07-68.55-10.97,8.57v49.35c0,10.28-8.23,17.82-18.51,17.82s-18.51-7.54-18.51-17.82v-211.12c0-10.28,7.88-17.82,18.51-17.82s18.51,7.54,18.51,17.82v120.98l62.03-48.67c4.46-3.43,7.88-4.46,12-4.46,9.94,0,17.82,7.88,17.82,17.82,0,5.14-2.4,10.63-6.85,14.05l-44.9,34.27,50.38,66.15c2.74,3.77,3.77,7.54,3.77,10.97,0,9.94-7.88,17.82-17.82,17.82-6.51,0-11.31-3.08-14.39-7.2Z" style="fill: rgb(248, 202, 83);"/>
        </g>
        <g>
          <g>
            <path class="cls-3" d="M731.75,608.17c-11.97,0-21.67-9.7-21.67-21.67v-78.64c0-11.97,9.7-21.67,21.67-21.67s21.67,9.7,21.67,21.67v78.64c0,11.97-9.7,21.67-21.67,21.67Z" style="fill: rgb(248, 202, 83);"/>
            <path class="cls-2" d="M494.09,529.54c-11.97,0-21.67-9.7-21.67-21.67v-72.24c0-11.97,9.7-21.67,21.67-21.67s21.67,9.7,21.67,21.67v72.24c0,11.97-9.7,21.67-21.67,21.67Z" style="fill: rgb(41, 179, 172);"/>
            <path class="cls-3" d="M677.57,662.36c-41.83,0-75.85-34.03-75.85-75.85,0-11.97,9.7-21.67,21.67-21.67s21.67,9.7,21.67,21.67c0,17.93,14.58,32.51,32.51,32.51s32.51-14.58,32.51-32.51c0-11.97,9.7-21.67,21.67-21.67s21.67,9.7,21.67,21.67c0,41.83-34.03,75.85-75.85,75.85Z" style="fill: rgb(248, 202, 83);"/>
            <path class="cls-3" d="M840.12,608.17c-11.97,0-21.67-9.7-21.67-21.67v-78.64c0-11.97,9.7-21.67,21.67-21.67s21.67,9.7,21.67,21.67v78.64c0,11.97-9.7,21.67-21.67,21.67Z" style="fill: rgb(248, 202, 83);"/>
            <path class="cls-2" d="M494.09,590.94c-11.97,0-21.67-9.7-21.67-21.67v-61.41c0-11.97,9.7-21.67,21.67-21.67s21.67,9.7,21.67,21.67v61.41c0,11.97-9.7,21.67-21.67,21.67Z" style="fill: rgb(41, 179, 172);"/>
            <path class="cls-2" d="M565.5,529.54h-71.41c-11.97,0-21.67-9.7-21.67-21.67s9.7-21.67,21.67-21.67h71.41c11.97,0,21.67,9.7,21.67,21.67s-9.7,21.67-21.67,21.67Z" style="fill: rgb(41, 179, 172);"/>
            <path class="cls-4" d="M365.16,663.18c-11.97,0-21.67-9.7-21.67-21.67v-61.41c0-11.97,9.7-21.67,21.67-21.67s21.67,9.7,21.67,21.67v61.41c0,11.97-9.7,21.67-21.67,21.67Z" style="fill: rgb(51, 149, 142);"/>
            <path class="cls-2" d="M623.39,608.17c-11.97,0-21.67-9.7-21.67-21.67v-78.64c0-11.97,9.7-21.67,21.67-21.67s21.67,9.7,21.67,21.67v78.64c0,11.97-9.7,21.67-21.67,21.67Z" style="fill: rgb(41, 179, 172);"/>
            <g>
              <path class="cls-3" d="M919.48,357.6c-11.97,0-21.67-9.7-21.67-21.67,0-17.93-14.58-32.51-32.51-32.51-11.97,0-21.67-9.7-21.67-21.67s9.7-21.67,21.67-21.67c41.83,0,75.85,34.03,75.85,75.85,0,11.97-9.7,21.67-21.67,21.67Z" style="fill: rgb(248, 202, 83);"/>
              <path class="cls-3" d="M919.48,791.76c-11.97,0-21.67-9.7-21.67-21.67v-434.16c0-11.97,9.7-21.67,21.67-21.67s21.67,9.7,21.67,21.67v434.16c0,11.97-9.7,21.67-21.67,21.67Z" style="fill: rgb(248, 202, 83);"/>
              <path class="cls-4" d="M338.81,845.94c-41.83,0-75.85-34.03-75.85-75.85,0-11.97,9.7-21.67,21.67-21.67s21.67,9.7,21.67,21.67c0,17.93,14.58,32.51,32.51,32.51,11.97,0,21.67,9.7,21.67,21.67s-9.7,21.67-21.67,21.67Z" style="fill: rgb(51, 149, 142);"/>
              <path class="cls-4" d="M284.63,791.76c-11.97,0-21.67-9.7-21.67-21.67v-434.16c0-11.97,9.7-21.67,21.67-21.67s21.67,9.7,21.67,21.67v434.16c0,11.97-9.7,21.67-21.67,21.67Z" style="fill: rgb(51, 149, 142);"/>
              <path class="cls-1" d="M865.3,845.94c-11.97,0-21.67-9.7-21.67-21.67s9.7-21.67,21.67-21.67c17.93,0,32.51-14.58,32.51-32.51,0-11.97,9.7-21.67,21.67-21.67s21.67,9.7,21.67,21.67c0,41.83-34.03,75.85-75.85,75.85Z" style="fill: rgb(190, 200, 190);"/>
              <path class="cls-3" d="M284.63,357.6c-11.97,0-21.67-9.7-21.67-21.67,0-41.83,34.03-75.85,75.85-75.85,11.97,0,21.67,9.7,21.67,21.67s-9.7,21.67-21.67,21.67c-17.93,0-32.51,14.58-32.51,32.51,0,11.97-9.7,21.67-21.67,21.67Z" style="fill: rgb(248, 202, 83);"/>
            </g>
            <path class="cls-4" d="M566.33,663.18s0,0,0,0c-25.09,0-48.67-9.77-66.41-27.51-17.74-17.74-27.51-41.32-27.51-66.41,0-11.97,9.7-21.67,21.67-21.67s21.67,9.7,21.67,21.67c0,27.88,22.69,50.57,50.57,50.57,11.97,0,21.67,9.7,21.67,21.67,0,11.97-9.7,21.67-21.67,21.67Z" style="fill: rgb(51, 149, 142);"/>
            <path class="cls-2" d="M365.16,601.78c-11.97,0-21.67-9.7-21.67-21.67,0-25.09,9.77-48.67,27.51-66.41,17.74-17.74,41.32-27.51,66.41-27.51,11.97,0,21.67,9.7,21.67,21.67s-9.7,21.67-21.67,21.67c-27.88,0-50.57,22.69-50.57,50.57,0,11.97-9.7,21.67-21.67,21.67Z" style="fill: rgb(41, 179, 172);"/>
            <path class="cls-3" d="M785.93,662.36c-41.83,0-75.85-34.03-75.85-75.85,0-11.97,9.7-21.67,21.67-21.67s21.67,9.7,21.67,21.67c0,17.93,14.58,32.51,32.51,32.51s32.51-14.58,32.51-32.51c0-11.97,9.7-21.67,21.67-21.67s21.67,9.7,21.67,21.67c0,41.83-34.03,75.85-75.85,75.85Z" style="fill: rgb(248, 202, 83);"/>
          </g>
          <path class="cls-3" d="M984.85,265.11c3.38,3.35,5.07,7.49,5.07,12.41s-1.72,9.09-5.15,12.49c-3.43,3.41-7.64,5.11-12.61,5.11s-9.15-1.68-12.53-5.03c-3.38-3.35-5.07-7.49-5.07-12.41s1.72-9.09,5.15-12.49c3.43-3.41,7.64-5.11,12.61-5.11s9.15,1.68,12.53,5.03ZM982.05,287.5c2.65-2.65,3.97-5.95,3.97-9.9s-1.33-7.31-3.97-9.94c-2.65-2.62-5.92-3.93-9.82-3.93s-7.23,1.31-9.86,3.93c-2.62,2.62-3.93,5.94-3.93,9.94s1.31,7.25,3.93,9.9c2.62,2.65,5.91,3.97,9.86,3.97s7.17-1.32,9.82-3.97ZM965.74,269.08h7.71c1.78,0,3.26.51,4.42,1.54,1.16,1.03,1.74,2.38,1.74,4.06,0,2.6-1.24,4.33-3.73,5.19l4.46,6.25h-4.38l-3.97-5.84h-2.51v5.84h-3.73v-17.04ZM969.48,272.25v5.11h3.49c2,0,3-.84,3-2.51s-1-2.6-3-2.6h-3.49Z" style="fill: rgb(248, 202, 83);"/>
        </g>
      </g>
    </g>
  </g>
</svg>